<svg width="1363" height="163" viewBox="0 0 1363 163" fill="none" xmlns="http://www.w3.org/2000/svg">
<path d="M0 15C0 6.71573 6.71573 0 15 0H37V163H15C6.71573 163 0 156.284 0 148V15Z" fill="#424242"/>
<rect width="1097" height="163" transform="translate(37)" fill="#F0F0F0"/>
<path d="M101.906 53.9219L94.3945 51.2383V48.0859L104.602 52.375V54.6367L101.906 53.9219ZM94.3945 56.1719L101.918 53.4297L104.602 52.7852V55.0352L94.3945 59.3242V56.1719ZM116.414 43.9375V61H112.898V43.9375H116.414ZM123.211 51.2266V53.9688H115.453V51.2266H123.211ZM124.031 43.9375V46.6914H115.453V43.9375H124.031ZM125.062 54.7891V54.543C125.062 53.6133 125.195 52.7578 125.461 51.9766C125.727 51.1875 126.113 50.5039 126.621 49.9258C127.129 49.3477 127.754 48.8984 128.496 48.5781C129.238 48.25 130.09 48.0859 131.051 48.0859C132.012 48.0859 132.867 48.25 133.617 48.5781C134.367 48.8984 134.996 49.3477 135.504 49.9258C136.02 50.5039 136.41 51.1875 136.676 51.9766C136.941 52.7578 137.074 53.6133 137.074 54.543V54.7891C137.074 55.7109 136.941 56.5664 136.676 57.3555C136.41 58.1367 136.02 58.8203 135.504 59.4062C134.996 59.9844 134.371 60.4336 133.629 60.7539C132.887 61.0742 132.035 61.2344 131.074 61.2344C130.113 61.2344 129.258 61.0742 128.508 60.7539C127.766 60.4336 127.137 59.9844 126.621 59.4062C126.113 58.8203 125.727 58.1367 125.461 57.3555C125.195 56.5664 125.062 55.7109 125.062 54.7891ZM128.438 54.543V54.7891C128.438 55.3203 128.484 55.8164 128.578 56.2773C128.672 56.7383 128.82 57.1445 129.023 57.4961C129.234 57.8398 129.508 58.1094 129.844 58.3047C130.18 58.5 130.59 58.5977 131.074 58.5977C131.543 58.5977 131.945 58.5 132.281 58.3047C132.617 58.1094 132.887 57.8398 133.09 57.4961C133.293 57.1445 133.441 56.7383 133.535 56.2773C133.637 55.8164 133.688 55.3203 133.688 54.7891V54.543C133.688 54.0273 133.637 53.543 133.535 53.0898C133.441 52.6289 133.289 52.2227 133.078 51.8711C132.875 51.5117 132.605 51.2305 132.27 51.0273C131.934 50.8242 131.527 50.7227 131.051 50.7227C130.574 50.7227 130.168 50.8242 129.832 51.0273C129.504 51.2305 129.234 51.5117 129.023 51.8711C128.82 52.2227 128.672 52.6289 128.578 53.0898C128.484 53.543 128.438 54.0273 128.438 54.543ZM142.711 43V61H139.324V43H142.711ZM149.062 48.3203V61H145.676V48.3203H149.062ZM145.465 45.0156C145.465 44.5234 145.637 44.1172 145.98 43.7969C146.324 43.4766 146.785 43.3164 147.363 43.3164C147.934 43.3164 148.391 43.4766 148.734 43.7969C149.086 44.1172 149.262 44.5234 149.262 45.0156C149.262 45.5078 149.086 45.9141 148.734 46.2344C148.391 46.5547 147.934 46.7148 147.363 46.7148C146.785 46.7148 146.324 46.5547 145.98 46.2344C145.637 45.9141 145.465 45.5078 145.465 45.0156ZM151.312 54.7891V54.543C151.312 53.6133 151.445 52.7578 151.711 51.9766C151.977 51.1875 152.363 50.5039 152.871 49.9258C153.379 49.3477 154.004 48.8984 154.746 48.5781C155.488 48.25 156.34 48.0859 157.301 48.0859C158.262 48.0859 159.117 48.25 159.867 48.5781C160.617 48.8984 161.246 49.3477 161.754 49.9258C162.27 50.5039 162.66 51.1875 162.926 51.9766C163.191 52.7578 163.324 53.6133 163.324 54.543V54.7891C163.324 55.7109 163.191 56.5664 162.926 57.3555C162.66 58.1367 162.27 58.8203 161.754 59.4062C161.246 59.9844 160.621 60.4336 159.879 60.7539C159.137 61.0742 158.285 61.2344 157.324 61.2344C156.363 61.2344 155.508 61.0742 154.758 60.7539C154.016 60.4336 153.387 59.9844 152.871 59.4062C152.363 58.8203 151.977 58.1367 151.711 57.3555C151.445 56.5664 151.312 55.7109 151.312 54.7891ZM154.688 54.543V54.7891C154.688 55.3203 154.734 55.8164 154.828 56.2773C154.922 56.7383 155.07 57.1445 155.273 57.4961C155.484 57.8398 155.758 58.1094 156.094 58.3047C156.43 58.5 156.84 58.5977 157.324 58.5977C157.793 58.5977 158.195 58.5 158.531 58.3047C158.867 58.1094 159.137 57.8398 159.34 57.4961C159.543 57.1445 159.691 56.7383 159.785 56.2773C159.887 55.8164 159.938 55.3203 159.938 54.7891V54.543C159.938 54.0273 159.887 53.543 159.785 53.0898C159.691 52.6289 159.539 52.2227 159.328 51.8711C159.125 51.5117 158.855 51.2305 158.52 51.0273C158.184 50.8242 157.777 50.7227 157.301 50.7227C156.824 50.7227 156.418 50.8242 156.082 51.0273C155.754 51.2305 155.484 51.5117 155.273 51.8711C155.07 52.2227 154.922 52.6289 154.828 53.0898C154.734 53.543 154.688 54.0273 154.688 54.543ZM169.523 58.5391L172.336 48.3203H175.863L171.586 61H169.453L169.523 58.5391ZM167.59 48.3203L170.414 58.5508L170.473 61H168.328L164.051 48.3203H167.59ZM183.047 61.2344C182.062 61.2344 181.18 61.0781 180.398 60.7656C179.617 60.4453 178.953 60.0039 178.406 59.4414C177.867 58.8789 177.453 58.2266 177.164 57.4844C176.875 56.7344 176.73 55.9375 176.73 55.0938V54.625C176.73 53.6641 176.867 52.7852 177.141 51.9883C177.414 51.1914 177.805 50.5 178.312 49.9141C178.828 49.3281 179.453 48.8789 180.188 48.5664C180.922 48.2461 181.75 48.0859 182.672 48.0859C183.57 48.0859 184.367 48.2344 185.062 48.5312C185.758 48.8281 186.34 49.25 186.809 49.7969C187.285 50.3438 187.645 51 187.887 51.7656C188.129 52.5234 188.25 53.3672 188.25 54.2969V55.7031H178.172V53.4531H184.934V53.1953C184.934 52.7266 184.848 52.3086 184.676 51.9414C184.512 51.5664 184.262 51.2695 183.926 51.0508C183.59 50.832 183.16 50.7227 182.637 50.7227C182.191 50.7227 181.809 50.8203 181.488 51.0156C181.168 51.2109 180.906 51.4844 180.703 51.8359C180.508 52.1875 180.359 52.6016 180.258 53.0781C180.164 53.5469 180.117 54.0625 180.117 54.625V55.0938C180.117 55.6016 180.188 56.0703 180.328 56.5C180.477 56.9297 180.684 57.3008 180.949 57.6133C181.223 57.9258 181.551 58.168 181.934 58.3398C182.324 58.5117 182.766 58.5977 183.258 58.5977C183.867 58.5977 184.434 58.4805 184.957 58.2461C185.488 58.0039 185.945 57.6406 186.328 57.1562L187.969 58.9375C187.703 59.3203 187.34 59.6875 186.879 60.0391C186.426 60.3906 185.879 60.6797 185.238 60.9062C184.598 61.125 183.867 61.2344 183.047 61.2344ZM193.547 51.0859V61H190.172V48.3203H193.348L193.547 51.0859ZM197.367 48.2383L197.309 51.3672C197.145 51.3438 196.945 51.3242 196.711 51.3086C196.484 51.2852 196.277 51.2734 196.09 51.2734C195.613 51.2734 195.199 51.3359 194.848 51.4609C194.504 51.5781 194.215 51.7539 193.98 51.9883C193.754 52.2227 193.582 52.5078 193.465 52.8438C193.355 53.1797 193.293 53.5625 193.277 53.9922L192.598 53.7812C192.598 52.9609 192.68 52.207 192.844 51.5195C193.008 50.8242 193.246 50.2188 193.559 49.7031C193.879 49.1875 194.27 48.7891 194.73 48.5078C195.191 48.2266 195.719 48.0859 196.312 48.0859C196.5 48.0859 196.691 48.1016 196.887 48.1328C197.082 48.1562 197.242 48.1914 197.367 48.2383ZM205.816 57.4961C205.816 57.2539 205.746 57.0352 205.605 56.8398C205.465 56.6445 205.203 56.4648 204.82 56.3008C204.445 56.1289 203.902 55.9727 203.191 55.832C202.551 55.6914 201.953 55.5156 201.398 55.3047C200.852 55.0859 200.375 54.8242 199.969 54.5195C199.57 54.2148 199.258 53.8555 199.031 53.4414C198.805 53.0195 198.691 52.5391 198.691 52C198.691 51.4688 198.805 50.9688 199.031 50.5C199.266 50.0312 199.598 49.6172 200.027 49.2578C200.465 48.8906 200.996 48.6055 201.621 48.4023C202.254 48.1914 202.965 48.0859 203.754 48.0859C204.855 48.0859 205.801 48.2617 206.59 48.6133C207.387 48.9648 207.996 49.4492 208.418 50.0664C208.848 50.6758 209.062 51.3711 209.062 52.1523H205.688C205.688 51.8242 205.617 51.5312 205.477 51.2734C205.344 51.0078 205.133 50.8008 204.844 50.6523C204.562 50.4961 204.195 50.418 203.742 50.418C203.367 50.418 203.043 50.4844 202.77 50.6172C202.496 50.7422 202.285 50.9141 202.137 51.1328C201.996 51.3438 201.926 51.5781 201.926 51.8359C201.926 52.0312 201.965 52.207 202.043 52.3633C202.129 52.5117 202.266 52.6484 202.453 52.7734C202.641 52.8984 202.883 53.0156 203.18 53.125C203.484 53.2266 203.859 53.3203 204.305 53.4062C205.219 53.5938 206.035 53.8398 206.754 54.1445C207.473 54.4414 208.043 54.8477 208.465 55.3633C208.887 55.8711 209.098 56.5391 209.098 57.3672C209.098 57.9297 208.973 58.4453 208.723 58.9141C208.473 59.3828 208.113 59.793 207.645 60.1445C207.176 60.4883 206.613 60.7578 205.957 60.9531C205.309 61.1406 204.578 61.2344 203.766 61.2344C202.586 61.2344 201.586 61.0234 200.766 60.6016C199.953 60.1797 199.336 59.6445 198.914 58.9961C198.5 58.3398 198.293 57.668 198.293 56.9805H201.492C201.508 57.4414 201.625 57.8125 201.844 58.0938C202.07 58.375 202.355 58.5781 202.699 58.7031C203.051 58.8281 203.43 58.8906 203.836 58.8906C204.273 58.8906 204.637 58.832 204.926 58.7148C205.215 58.5898 205.434 58.4258 205.582 58.2227C205.738 58.0117 205.816 57.7695 205.816 57.4961ZM217.125 61.2344C216.141 61.2344 215.258 61.0781 214.477 60.7656C213.695 60.4453 213.031 60.0039 212.484 59.4414C211.945 58.8789 211.531 58.2266 211.242 57.4844C210.953 56.7344 210.809 55.9375 210.809 55.0938V54.625C210.809 53.6641 210.945 52.7852 211.219 51.9883C211.492 51.1914 211.883 50.5 212.391 49.9141C212.906 49.3281 213.531 48.8789 214.266 48.5664C215 48.2461 215.828 48.0859 216.75 48.0859C217.648 48.0859 218.445 48.2344 219.141 48.5312C219.836 48.8281 220.418 49.25 220.887 49.7969C221.363 50.3438 221.723 51 221.965 51.7656C222.207 52.5234 222.328 53.3672 222.328 54.2969V55.7031H212.25V53.4531H219.012V53.1953C219.012 52.7266 218.926 52.3086 218.754 51.9414C218.59 51.5664 218.34 51.2695 218.004 51.0508C217.668 50.832 217.238 50.7227 216.715 50.7227C216.27 50.7227 215.887 50.8203 215.566 51.0156C215.246 51.2109 214.984 51.4844 214.781 51.8359C214.586 52.1875 214.438 52.6016 214.336 53.0781C214.242 53.5469 214.195 54.0625 214.195 54.625V55.0938C214.195 55.6016 214.266 56.0703 214.406 56.5C214.555 56.9297 214.762 57.3008 215.027 57.6133C215.301 57.9258 215.629 58.168 216.012 58.3398C216.402 58.5117 216.844 58.5977 217.336 58.5977C217.945 58.5977 218.512 58.4805 219.035 58.2461C219.566 58.0039 220.023 57.6406 220.406 57.1562L222.047 58.9375C221.781 59.3203 221.418 59.6875 220.957 60.0391C220.504 60.3906 219.957 60.6797 219.316 60.9062C218.676 61.125 217.945 61.2344 217.125 61.2344Z" fill="#888888"/>
<path d="M104.344 84.875V119H96.1406V84.875H104.344ZM117.727 99.0078V119H109.828V93.6406H117.234L117.727 99.0078ZM116.766 105.453L114.961 105.5C114.961 103.719 115.172 102.078 115.594 100.578C116.016 99.0781 116.641 97.7734 117.469 96.6641C118.297 95.5547 119.312 94.6953 120.516 94.0859C121.734 93.4766 123.141 93.1719 124.734 93.1719C125.844 93.1719 126.852 93.3438 127.758 93.6875C128.664 94.0156 129.445 94.5391 130.102 95.2578C130.758 95.9609 131.258 96.8828 131.602 98.0234C131.961 99.1484 132.141 100.5 132.141 102.078V119H124.242V103.086C124.242 102.008 124.117 101.195 123.867 100.648C123.633 100.102 123.289 99.7344 122.836 99.5469C122.383 99.3594 121.828 99.2656 121.172 99.2656C120.484 99.2656 119.867 99.4219 119.32 99.7344C118.773 100.047 118.305 100.484 117.914 101.047C117.539 101.594 117.25 102.242 117.047 102.992C116.859 103.742 116.766 104.562 116.766 105.453ZM131.25 105.453L129.047 105.5C129.047 103.719 129.242 102.078 129.633 100.578C130.039 99.0781 130.641 97.7734 131.438 96.6641C132.25 95.5547 133.258 94.6953 134.461 94.0859C135.664 93.4766 137.062 93.1719 138.656 93.1719C139.812 93.1719 140.875 93.3438 141.844 93.6875C142.812 94.0312 143.648 94.5859 144.352 95.3516C145.055 96.1172 145.602 97.1328 145.992 98.3984C146.383 99.6484 146.578 101.195 146.578 103.039V119H138.656V103.039C138.656 101.992 138.531 101.203 138.281 100.672C138.047 100.125 137.703 99.7578 137.25 99.5703C136.797 99.3672 136.258 99.2656 135.633 99.2656C134.883 99.2656 134.234 99.4219 133.688 99.7344C133.141 100.047 132.68 100.484 132.305 101.047C131.945 101.594 131.68 102.242 131.508 102.992C131.336 103.742 131.25 104.562 131.25 105.453ZM159.07 98.5156V128.75H151.172V93.6406H158.531L159.07 98.5156ZM174.633 106.016V106.508C174.633 108.352 174.422 110.062 174 111.641C173.578 113.219 172.953 114.594 172.125 115.766C171.297 116.938 170.266 117.852 169.031 118.508C167.812 119.148 166.398 119.469 164.789 119.469C163.273 119.469 161.969 119.133 160.875 118.461C159.781 117.789 158.867 116.859 158.133 115.672C157.398 114.484 156.805 113.125 156.352 111.594C155.898 110.062 155.539 108.445 155.273 106.742V106.109C155.539 104.281 155.898 102.586 156.352 101.023C156.805 99.4453 157.398 98.0703 158.133 96.8984C158.867 95.7266 159.773 94.8125 160.852 94.1562C161.945 93.5 163.25 93.1719 164.766 93.1719C166.375 93.1719 167.789 93.4766 169.008 94.0859C170.242 94.6953 171.273 95.5703 172.102 96.7109C172.945 97.8359 173.578 99.1875 174 100.766C174.422 102.344 174.633 104.094 174.633 106.016ZM166.734 106.508V106.016C166.734 105.031 166.664 104.133 166.523 103.32C166.383 102.492 166.156 101.773 165.844 101.164C165.547 100.555 165.148 100.086 164.648 99.7578C164.148 99.4297 163.531 99.2656 162.797 99.2656C161.953 99.2656 161.242 99.3984 160.664 99.6641C160.102 99.9141 159.648 100.305 159.305 100.836C158.977 101.352 158.742 102 158.602 102.781C158.477 103.547 158.422 104.445 158.438 105.477V107.398C158.406 108.586 158.523 109.633 158.789 110.539C159.055 111.43 159.516 112.125 160.172 112.625C160.828 113.125 161.719 113.375 162.844 113.375C163.594 113.375 164.219 113.203 164.719 112.859C165.219 112.5 165.617 112.008 165.914 111.383C166.211 110.742 166.422 110.008 166.547 109.18C166.672 108.352 166.734 107.461 166.734 106.508ZM186.492 83V119H178.57V83H186.492ZM203.648 119.469C201.586 119.469 199.742 119.148 198.117 118.508C196.492 117.852 195.117 116.953 193.992 115.812C192.883 114.672 192.031 113.359 191.438 111.875C190.859 110.391 190.57 108.82 190.57 107.164V106.273C190.57 104.414 190.828 102.695 191.344 101.117C191.859 99.5234 192.625 98.1328 193.641 96.9453C194.656 95.7578 195.93 94.8359 197.461 94.1797C198.992 93.5078 200.773 93.1719 202.805 93.1719C204.602 93.1719 206.211 93.4609 207.633 94.0391C209.055 94.6172 210.258 95.4453 211.242 96.5234C212.242 97.6016 213 98.9062 213.516 100.438C214.047 101.969 214.312 103.688 214.312 105.594V108.805H193.594V103.859H206.602V103.25C206.617 102.406 206.469 101.688 206.156 101.094C205.859 100.5 205.422 100.047 204.844 99.7344C204.266 99.4219 203.562 99.2656 202.734 99.2656C201.875 99.2656 201.164 99.4531 200.602 99.8281C200.055 100.203 199.625 100.719 199.312 101.375C199.016 102.016 198.805 102.758 198.68 103.602C198.555 104.445 198.492 105.336 198.492 106.273V107.164C198.492 108.102 198.617 108.953 198.867 109.719C199.133 110.484 199.508 111.141 199.992 111.688C200.492 112.219 201.086 112.633 201.773 112.93C202.477 113.227 203.273 113.375 204.164 113.375C205.242 113.375 206.305 113.172 207.352 112.766C208.398 112.359 209.297 111.688 210.047 110.75L213.633 115.016C213.117 115.75 212.383 116.461 211.43 117.148C210.492 117.836 209.367 118.398 208.055 118.836C206.742 119.258 205.273 119.469 203.648 119.469ZM225.492 99.0078V119H217.594V93.6406H225L225.492 99.0078ZM224.531 105.453L222.727 105.5C222.727 103.719 222.938 102.078 223.359 100.578C223.781 99.0781 224.406 97.7734 225.234 96.6641C226.062 95.5547 227.078 94.6953 228.281 94.0859C229.5 93.4766 230.906 93.1719 232.5 93.1719C233.609 93.1719 234.617 93.3438 235.523 93.6875C236.43 94.0156 237.211 94.5391 237.867 95.2578C238.523 95.9609 239.023 96.8828 239.367 98.0234C239.727 99.1484 239.906 100.5 239.906 102.078V119H232.008V103.086C232.008 102.008 231.883 101.195 231.633 100.648C231.398 100.102 231.055 99.7344 230.602 99.5469C230.148 99.3594 229.594 99.2656 228.938 99.2656C228.25 99.2656 227.633 99.4219 227.086 99.7344C226.539 100.047 226.07 100.484 225.68 101.047C225.305 101.594 225.016 102.242 224.812 102.992C224.625 103.742 224.531 104.562 224.531 105.453ZM239.016 105.453L236.812 105.5C236.812 103.719 237.008 102.078 237.398 100.578C237.805 99.0781 238.406 97.7734 239.203 96.6641C240.016 95.5547 241.023 94.6953 242.227 94.0859C243.43 93.4766 244.828 93.1719 246.422 93.1719C247.578 93.1719 248.641 93.3438 249.609 93.6875C250.578 94.0312 251.414 94.5859 252.117 95.3516C252.82 96.1172 253.367 97.1328 253.758 98.3984C254.148 99.6484 254.344 101.195 254.344 103.039V119H246.422V103.039C246.422 101.992 246.297 101.203 246.047 100.672C245.812 100.125 245.469 99.7578 245.016 99.5703C244.562 99.3672 244.023 99.2656 243.398 99.2656C242.648 99.2656 242 99.4219 241.453 99.7344C240.906 100.047 240.445 100.484 240.07 101.047C239.711 101.594 239.445 102.242 239.273 102.992C239.102 103.742 239.016 104.562 239.016 105.453ZM271.148 119.469C269.086 119.469 267.242 119.148 265.617 118.508C263.992 117.852 262.617 116.953 261.492 115.812C260.383 114.672 259.531 113.359 258.938 111.875C258.359 110.391 258.07 108.82 258.07 107.164V106.273C258.07 104.414 258.328 102.695 258.844 101.117C259.359 99.5234 260.125 98.1328 261.141 96.9453C262.156 95.7578 263.43 94.8359 264.961 94.1797C266.492 93.5078 268.273 93.1719 270.305 93.1719C272.102 93.1719 273.711 93.4609 275.133 94.0391C276.555 94.6172 277.758 95.4453 278.742 96.5234C279.742 97.6016 280.5 98.9062 281.016 100.438C281.547 101.969 281.812 103.688 281.812 105.594V108.805H261.094V103.859H274.102V103.25C274.117 102.406 273.969 101.688 273.656 101.094C273.359 100.5 272.922 100.047 272.344 99.7344C271.766 99.4219 271.062 99.2656 270.234 99.2656C269.375 99.2656 268.664 99.4531 268.102 99.8281C267.555 100.203 267.125 100.719 266.812 101.375C266.516 102.016 266.305 102.758 266.18 103.602C266.055 104.445 265.992 105.336 265.992 106.273V107.164C265.992 108.102 266.117 108.953 266.367 109.719C266.633 110.484 267.008 111.141 267.492 111.688C267.992 112.219 268.586 112.633 269.273 112.93C269.977 113.227 270.773 113.375 271.664 113.375C272.742 113.375 273.805 113.172 274.852 112.766C275.898 112.359 276.797 111.688 277.547 110.75L281.133 115.016C280.617 115.75 279.883 116.461 278.93 117.148C277.992 117.836 276.867 118.398 275.555 118.836C274.242 119.258 272.773 119.469 271.148 119.469ZM292.781 99.0547V119H284.883V93.6406H292.289L292.781 99.0547ZM291.844 105.453L289.992 105.5C289.992 103.562 290.227 101.836 290.695 100.32C291.164 98.7891 291.828 97.4922 292.688 96.4297C293.547 95.3672 294.57 94.5625 295.758 94.0156C296.961 93.4531 298.297 93.1719 299.766 93.1719C300.938 93.1719 302.008 93.3438 302.977 93.6875C303.961 94.0312 304.805 94.5859 305.508 95.3516C306.227 96.1172 306.773 97.1328 307.148 98.3984C307.539 99.6484 307.734 101.195 307.734 103.039V119H299.789V103.016C299.789 102 299.648 101.227 299.367 100.695C299.086 100.148 298.68 99.7734 298.148 99.5703C297.617 99.3672 296.969 99.2656 296.203 99.2656C295.391 99.2656 294.703 99.4219 294.141 99.7344C293.578 100.047 293.125 100.484 292.781 101.047C292.453 101.594 292.211 102.242 292.055 102.992C291.914 103.742 291.844 104.562 291.844 105.453ZM325.477 93.6406V99.125H310.195V93.6406H325.477ZM313.406 87.3359H321.305V110.727C321.305 111.398 321.383 111.922 321.539 112.297C321.695 112.656 321.961 112.914 322.336 113.07C322.727 113.211 323.242 113.281 323.883 113.281C324.336 113.281 324.711 113.273 325.008 113.258C325.305 113.227 325.586 113.188 325.852 113.141V118.789C325.18 119.008 324.477 119.172 323.742 119.281C323.008 119.406 322.227 119.469 321.398 119.469C319.711 119.469 318.266 119.203 317.062 118.672C315.875 118.141 314.969 117.305 314.344 116.164C313.719 115.023 313.406 113.539 313.406 111.711V87.3359ZM341.789 112.625V102.172C341.789 101.453 341.688 100.836 341.484 100.32C341.281 99.8047 340.961 99.4062 340.523 99.125C340.086 98.8281 339.5 98.6797 338.766 98.6797C338.172 98.6797 337.664 98.7812 337.242 98.9844C336.82 99.1875 336.5 99.4922 336.281 99.8984C336.062 100.305 335.953 100.82 335.953 101.445H328.055C328.055 100.273 328.312 99.1875 328.828 98.1875C329.359 97.1719 330.109 96.2891 331.078 95.5391C332.062 94.7891 333.234 94.2109 334.594 93.8047C335.969 93.3828 337.5 93.1719 339.188 93.1719C341.203 93.1719 343 93.5078 344.578 94.1797C346.172 94.8516 347.43 95.8594 348.352 97.2031C349.273 98.5312 349.734 100.203 349.734 102.219V112.602C349.734 114.258 349.828 115.516 350.016 116.375C350.203 117.219 350.469 117.961 350.812 118.602V119H342.891C342.516 118.219 342.234 117.266 342.047 116.141C341.875 115 341.789 113.828 341.789 112.625ZM342.75 103.508L342.797 107.727H339.305C338.57 107.727 337.945 107.828 337.43 108.031C336.93 108.234 336.523 108.516 336.211 108.875C335.914 109.219 335.695 109.609 335.555 110.047C335.43 110.484 335.367 110.945 335.367 111.43C335.367 111.898 335.477 112.32 335.695 112.695C335.93 113.055 336.242 113.336 336.633 113.539C337.023 113.742 337.461 113.844 337.945 113.844C338.82 113.844 339.562 113.68 340.172 113.352C340.797 113.008 341.273 112.594 341.602 112.109C341.93 111.625 342.094 111.172 342.094 110.75L343.828 113.984C343.516 114.609 343.156 115.242 342.75 115.883C342.359 116.523 341.867 117.117 341.273 117.664C340.695 118.195 339.984 118.633 339.141 118.977C338.297 119.305 337.273 119.469 336.07 119.469C334.508 119.469 333.07 119.148 331.758 118.508C330.461 117.867 329.422 116.977 328.641 115.836C327.859 114.68 327.469 113.352 327.469 111.852C327.469 110.539 327.703 109.367 328.172 108.336C328.656 107.305 329.383 106.43 330.352 105.711C331.32 104.992 332.555 104.445 334.055 104.07C335.555 103.695 337.32 103.508 339.352 103.508H342.75ZM367.477 93.6406V99.125H352.195V93.6406H367.477ZM355.406 87.3359H363.305V110.727C363.305 111.398 363.383 111.922 363.539 112.297C363.695 112.656 363.961 112.914 364.336 113.07C364.727 113.211 365.242 113.281 365.883 113.281C366.336 113.281 366.711 113.273 367.008 113.258C367.305 113.227 367.586 113.188 367.852 113.141V118.789C367.18 119.008 366.477 119.172 365.742 119.281C365.008 119.406 364.227 119.469 363.398 119.469C361.711 119.469 360.266 119.203 359.062 118.672C357.875 118.141 356.969 117.305 356.344 116.164C355.719 115.023 355.406 113.539 355.406 111.711V87.3359ZM378.961 93.6406V119H371.039V93.6406H378.961ZM370.57 87.1016C370.57 85.9766 370.977 85.0547 371.789 84.3359C372.602 83.6172 373.656 83.2578 374.953 83.2578C376.25 83.2578 377.305 83.6172 378.117 84.3359C378.93 85.0547 379.336 85.9766 379.336 87.1016C379.336 88.2266 378.93 89.1484 378.117 89.8672C377.305 90.5859 376.25 90.9453 374.953 90.9453C373.656 90.9453 372.602 90.5859 371.789 89.8672C370.977 89.1484 370.57 88.2266 370.57 87.1016ZM382.852 106.578V106.086C382.852 104.227 383.117 102.516 383.648 100.953C384.18 99.375 384.961 98.0078 385.992 96.8516C387.023 95.6953 388.297 94.7969 389.812 94.1562C391.328 93.5 393.078 93.1719 395.062 93.1719C397.062 93.1719 398.82 93.5 400.336 94.1562C401.867 94.7969 403.148 95.6953 404.18 96.8516C405.211 98.0078 405.992 99.375 406.523 100.953C407.055 102.516 407.32 104.227 407.32 106.086V106.578C407.32 108.422 407.055 110.133 406.523 111.711C405.992 113.273 405.211 114.641 404.18 115.812C403.148 116.969 401.875 117.867 400.359 118.508C398.844 119.148 397.094 119.469 395.109 119.469C393.125 119.469 391.367 119.148 389.836 118.508C388.305 117.867 387.023 116.969 385.992 115.812C384.961 114.641 384.18 113.273 383.648 111.711C383.117 110.133 382.852 108.422 382.852 106.578ZM390.75 106.086V106.578C390.75 107.531 390.82 108.422 390.961 109.25C391.102 110.078 391.336 110.805 391.664 111.43C391.992 112.039 392.438 112.516 393 112.859C393.562 113.203 394.266 113.375 395.109 113.375C395.938 113.375 396.625 113.203 397.172 112.859C397.734 112.516 398.18 112.039 398.508 111.43C398.836 110.805 399.07 110.078 399.211 109.25C399.352 108.422 399.422 107.531 399.422 106.578V106.086C399.422 105.164 399.352 104.297 399.211 103.484C399.07 102.656 398.836 101.93 398.508 101.305C398.18 100.664 397.734 100.164 397.172 99.8047C396.609 99.4453 395.906 99.2656 395.062 99.2656C394.234 99.2656 393.539 99.4453 392.977 99.8047C392.43 100.164 391.992 100.664 391.664 101.305C391.336 101.93 391.102 102.656 390.961 103.484C390.82 104.297 390.75 105.164 390.75 106.086ZM418.594 99.0547V119H410.695V93.6406H418.102L418.594 99.0547ZM417.656 105.453L415.805 105.5C415.805 103.562 416.039 101.836 416.508 100.32C416.977 98.7891 417.641 97.4922 418.5 96.4297C419.359 95.3672 420.383 94.5625 421.57 94.0156C422.773 93.4531 424.109 93.1719 425.578 93.1719C426.75 93.1719 427.82 93.3438 428.789 93.6875C429.773 94.0312 430.617 94.5859 431.32 95.3516C432.039 96.1172 432.586 97.1328 432.961 98.3984C433.352 99.6484 433.547 101.195 433.547 103.039V119H425.602V103.016C425.602 102 425.461 101.227 425.18 100.695C424.898 100.148 424.492 99.7734 423.961 99.5703C423.43 99.3672 422.781 99.2656 422.016 99.2656C421.203 99.2656 420.516 99.4219 419.953 99.7344C419.391 100.047 418.938 100.484 418.594 101.047C418.266 101.594 418.023 102.242 417.867 102.992C417.727 103.742 417.656 104.562 417.656 105.453Z" fill="black"/>
<path d="M1134 0H1348C1356.28 0 1363 6.71573 1363 15V148C1363 156.284 1356.28 163 1348 163H1134V0Z" fill="#1439B5"/>
<path d="M1281 46.5H1216L1213.5 49V114L1216 116.5H1281L1283.5 114V49L1281 46.5ZM1278.5 111.5H1233.5V101.5H1245C1246.5 104.5 1250 106.5 1253.5 106.5C1259 106.5 1263.5 102 1263.5 96.5C1263.5 91 1259 86.5 1253.5 86.5C1248 86.5 1243.5 91 1243.5 96.5H1228.5V111.5H1218.5V51.5H1228.5V63C1225.5 64.5 1223.5 68 1223.5 71.5C1223.5 77 1228 81.5 1233.5 81.5C1239 81.5 1243.5 77 1243.5 71.5H1253.5C1253.5 77 1258 81.5 1263.5 81.5C1269 81.5 1273.5 77 1273.5 71.5C1273.5 66 1269 61.5 1263.5 61.5C1260 61.5 1256.5 63.5 1255 66.5H1242C1240.5 63.5 1237 61.5 1233.5 61.5V51.5H1278.5V111.5ZM1248.5 96.5C1248.5 93.5 1250.5 91.5 1253.5 91.5C1256.5 91.5 1258.5 93.5 1258.5 96.5C1258.5 99.5 1256.5 101.5 1253.5 101.5C1250.5 101.5 1248.5 99.5 1248.5 96.5ZM1233.5 66.5C1236.5 66.5 1238.5 68.5 1238.5 71.5C1238.5 74.5 1236.5 76.5 1233.5 76.5C1230.5 76.5 1228.5 74.5 1228.5 71.5C1228.5 68.5 1230.5 66.5 1233.5 66.5ZM1263.5 66.5C1266.5 66.5 1268.5 68.5 1268.5 71.5C1268.5 74.5 1266.5 76.5 1263.5 76.5C1260.5 76.5 1258.5 74.5 1258.5 71.5C1258.5 68.5 1260.5 66.5 1263.5 66.5Z" fill="white"/>
</svg>
