<svg width="1363" height="163" viewBox="0 0 1363 163" fill="none" xmlns="http://www.w3.org/2000/svg">
<path d="M0 15C0 6.71573 6.71573 0 15 0H37V163H15C6.71573 163 0 156.284 0 148V15Z" fill="#424242"/>
<rect width="1097" height="163" transform="translate(37)" fill="#F0F0F0"/>
<path d="M101.906 53.9219L94.3945 51.2383V48.0859L104.602 52.375V54.6367L101.906 53.9219ZM94.3945 56.1719L101.918 53.4297L104.602 52.7852V55.0352L94.3945 59.3242V56.1719ZM116.414 43.9375V61H112.898V43.9375H116.414ZM123.211 51.2266V53.9688H115.453V51.2266H123.211ZM124.031 43.9375V46.6914H115.453V43.9375H124.031ZM125.062 54.7891V54.543C125.062 53.6133 125.195 52.7578 125.461 51.9766C125.727 51.1875 126.113 50.5039 126.621 49.9258C127.129 49.3477 127.754 48.8984 128.496 48.5781C129.238 48.25 130.09 48.0859 131.051 48.0859C132.012 48.0859 132.867 48.25 133.617 48.5781C134.367 48.8984 134.996 49.3477 135.504 49.9258C136.02 50.5039 136.41 51.1875 136.676 51.9766C136.941 52.7578 137.074 53.6133 137.074 54.543V54.7891C137.074 55.7109 136.941 56.5664 136.676 57.3555C136.41 58.1367 136.02 58.8203 135.504 59.4062C134.996 59.9844 134.371 60.4336 133.629 60.7539C132.887 61.0742 132.035 61.2344 131.074 61.2344C130.113 61.2344 129.258 61.0742 128.508 60.7539C127.766 60.4336 127.137 59.9844 126.621 59.4062C126.113 58.8203 125.727 58.1367 125.461 57.3555C125.195 56.5664 125.062 55.7109 125.062 54.7891ZM128.438 54.543V54.7891C128.438 55.3203 128.484 55.8164 128.578 56.2773C128.672 56.7383 128.82 57.1445 129.023 57.4961C129.234 57.8398 129.508 58.1094 129.844 58.3047C130.18 58.5 130.59 58.5977 131.074 58.5977C131.543 58.5977 131.945 58.5 132.281 58.3047C132.617 58.1094 132.887 57.8398 133.09 57.4961C133.293 57.1445 133.441 56.7383 133.535 56.2773C133.637 55.8164 133.688 55.3203 133.688 54.7891V54.543C133.688 54.0273 133.637 53.543 133.535 53.0898C133.441 52.6289 133.289 52.2227 133.078 51.8711C132.875 51.5117 132.605 51.2305 132.27 51.0273C131.934 50.8242 131.527 50.7227 131.051 50.7227C130.574 50.7227 130.168 50.8242 129.832 51.0273C129.504 51.2305 129.234 51.5117 129.023 51.8711C128.82 52.2227 128.672 52.6289 128.578 53.0898C128.484 53.543 128.438 54.0273 128.438 54.543ZM142.711 43V61H139.324V43H142.711ZM149.062 48.3203V61H145.676V48.3203H149.062ZM145.465 45.0156C145.465 44.5234 145.637 44.1172 145.98 43.7969C146.324 43.4766 146.785 43.3164 147.363 43.3164C147.934 43.3164 148.391 43.4766 148.734 43.7969C149.086 44.1172 149.262 44.5234 149.262 45.0156C149.262 45.5078 149.086 45.9141 148.734 46.2344C148.391 46.5547 147.934 46.7148 147.363 46.7148C146.785 46.7148 146.324 46.5547 145.98 46.2344C145.637 45.9141 145.465 45.5078 145.465 45.0156ZM151.312 54.7891V54.543C151.312 53.6133 151.445 52.7578 151.711 51.9766C151.977 51.1875 152.363 50.5039 152.871 49.9258C153.379 49.3477 154.004 48.8984 154.746 48.5781C155.488 48.25 156.34 48.0859 157.301 48.0859C158.262 48.0859 159.117 48.25 159.867 48.5781C160.617 48.8984 161.246 49.3477 161.754 49.9258C162.27 50.5039 162.66 51.1875 162.926 51.9766C163.191 52.7578 163.324 53.6133 163.324 54.543V54.7891C163.324 55.7109 163.191 56.5664 162.926 57.3555C162.66 58.1367 162.27 58.8203 161.754 59.4062C161.246 59.9844 160.621 60.4336 159.879 60.7539C159.137 61.0742 158.285 61.2344 157.324 61.2344C156.363 61.2344 155.508 61.0742 154.758 60.7539C154.016 60.4336 153.387 59.9844 152.871 59.4062C152.363 58.8203 151.977 58.1367 151.711 57.3555C151.445 56.5664 151.312 55.7109 151.312 54.7891ZM154.688 54.543V54.7891C154.688 55.3203 154.734 55.8164 154.828 56.2773C154.922 56.7383 155.07 57.1445 155.273 57.4961C155.484 57.8398 155.758 58.1094 156.094 58.3047C156.43 58.5 156.84 58.5977 157.324 58.5977C157.793 58.5977 158.195 58.5 158.531 58.3047C158.867 58.1094 159.137 57.8398 159.34 57.4961C159.543 57.1445 159.691 56.7383 159.785 56.2773C159.887 55.8164 159.938 55.3203 159.938 54.7891V54.543C159.938 54.0273 159.887 53.543 159.785 53.0898C159.691 52.6289 159.539 52.2227 159.328 51.8711C159.125 51.5117 158.855 51.2305 158.52 51.0273C158.184 50.8242 157.777 50.7227 157.301 50.7227C156.824 50.7227 156.418 50.8242 156.082 51.0273C155.754 51.2305 155.484 51.5117 155.273 51.8711C155.07 52.2227 154.922 52.6289 154.828 53.0898C154.734 53.543 154.688 54.0273 154.688 54.543ZM169.523 58.5391L172.336 48.3203H175.863L171.586 61H169.453L169.523 58.5391ZM167.59 48.3203L170.414 58.5508L170.473 61H168.328L164.051 48.3203H167.59ZM183.047 61.2344C182.062 61.2344 181.18 61.0781 180.398 60.7656C179.617 60.4453 178.953 60.0039 178.406 59.4414C177.867 58.8789 177.453 58.2266 177.164 57.4844C176.875 56.7344 176.73 55.9375 176.73 55.0938V54.625C176.73 53.6641 176.867 52.7852 177.141 51.9883C177.414 51.1914 177.805 50.5 178.312 49.9141C178.828 49.3281 179.453 48.8789 180.188 48.5664C180.922 48.2461 181.75 48.0859 182.672 48.0859C183.57 48.0859 184.367 48.2344 185.062 48.5312C185.758 48.8281 186.34 49.25 186.809 49.7969C187.285 50.3438 187.645 51 187.887 51.7656C188.129 52.5234 188.25 53.3672 188.25 54.2969V55.7031H178.172V53.4531H184.934V53.1953C184.934 52.7266 184.848 52.3086 184.676 51.9414C184.512 51.5664 184.262 51.2695 183.926 51.0508C183.59 50.832 183.16 50.7227 182.637 50.7227C182.191 50.7227 181.809 50.8203 181.488 51.0156C181.168 51.2109 180.906 51.4844 180.703 51.8359C180.508 52.1875 180.359 52.6016 180.258 53.0781C180.164 53.5469 180.117 54.0625 180.117 54.625V55.0938C180.117 55.6016 180.188 56.0703 180.328 56.5C180.477 56.9297 180.684 57.3008 180.949 57.6133C181.223 57.9258 181.551 58.168 181.934 58.3398C182.324 58.5117 182.766 58.5977 183.258 58.5977C183.867 58.5977 184.434 58.4805 184.957 58.2461C185.488 58.0039 185.945 57.6406 186.328 57.1562L187.969 58.9375C187.703 59.3203 187.34 59.6875 186.879 60.0391C186.426 60.3906 185.879 60.6797 185.238 60.9062C184.598 61.125 183.867 61.2344 183.047 61.2344ZM193.547 51.0859V61H190.172V48.3203H193.348L193.547 51.0859ZM197.367 48.2383L197.309 51.3672C197.145 51.3438 196.945 51.3242 196.711 51.3086C196.484 51.2852 196.277 51.2734 196.09 51.2734C195.613 51.2734 195.199 51.3359 194.848 51.4609C194.504 51.5781 194.215 51.7539 193.98 51.9883C193.754 52.2227 193.582 52.5078 193.465 52.8438C193.355 53.1797 193.293 53.5625 193.277 53.9922L192.598 53.7812C192.598 52.9609 192.68 52.207 192.844 51.5195C193.008 50.8242 193.246 50.2188 193.559 49.7031C193.879 49.1875 194.27 48.7891 194.73 48.5078C195.191 48.2266 195.719 48.0859 196.312 48.0859C196.5 48.0859 196.691 48.1016 196.887 48.1328C197.082 48.1562 197.242 48.1914 197.367 48.2383ZM205.816 57.4961C205.816 57.2539 205.746 57.0352 205.605 56.8398C205.465 56.6445 205.203 56.4648 204.82 56.3008C204.445 56.1289 203.902 55.9727 203.191 55.832C202.551 55.6914 201.953 55.5156 201.398 55.3047C200.852 55.0859 200.375 54.8242 199.969 54.5195C199.57 54.2148 199.258 53.8555 199.031 53.4414C198.805 53.0195 198.691 52.5391 198.691 52C198.691 51.4688 198.805 50.9688 199.031 50.5C199.266 50.0312 199.598 49.6172 200.027 49.2578C200.465 48.8906 200.996 48.6055 201.621 48.4023C202.254 48.1914 202.965 48.0859 203.754 48.0859C204.855 48.0859 205.801 48.2617 206.59 48.6133C207.387 48.9648 207.996 49.4492 208.418 50.0664C208.848 50.6758 209.062 51.3711 209.062 52.1523H205.688C205.688 51.8242 205.617 51.5312 205.477 51.2734C205.344 51.0078 205.133 50.8008 204.844 50.6523C204.562 50.4961 204.195 50.418 203.742 50.418C203.367 50.418 203.043 50.4844 202.77 50.6172C202.496 50.7422 202.285 50.9141 202.137 51.1328C201.996 51.3438 201.926 51.5781 201.926 51.8359C201.926 52.0312 201.965 52.207 202.043 52.3633C202.129 52.5117 202.266 52.6484 202.453 52.7734C202.641 52.8984 202.883 53.0156 203.18 53.125C203.484 53.2266 203.859 53.3203 204.305 53.4062C205.219 53.5938 206.035 53.8398 206.754 54.1445C207.473 54.4414 208.043 54.8477 208.465 55.3633C208.887 55.8711 209.098 56.5391 209.098 57.3672C209.098 57.9297 208.973 58.4453 208.723 58.9141C208.473 59.3828 208.113 59.793 207.645 60.1445C207.176 60.4883 206.613 60.7578 205.957 60.9531C205.309 61.1406 204.578 61.2344 203.766 61.2344C202.586 61.2344 201.586 61.0234 200.766 60.6016C199.953 60.1797 199.336 59.6445 198.914 58.9961C198.5 58.3398 198.293 57.668 198.293 56.9805H201.492C201.508 57.4414 201.625 57.8125 201.844 58.0938C202.07 58.375 202.355 58.5781 202.699 58.7031C203.051 58.8281 203.43 58.8906 203.836 58.8906C204.273 58.8906 204.637 58.832 204.926 58.7148C205.215 58.5898 205.434 58.4258 205.582 58.2227C205.738 58.0117 205.816 57.7695 205.816 57.4961ZM217.125 61.2344C216.141 61.2344 215.258 61.0781 214.477 60.7656C213.695 60.4453 213.031 60.0039 212.484 59.4414C211.945 58.8789 211.531 58.2266 211.242 57.4844C210.953 56.7344 210.809 55.9375 210.809 55.0938V54.625C210.809 53.6641 210.945 52.7852 211.219 51.9883C211.492 51.1914 211.883 50.5 212.391 49.9141C212.906 49.3281 213.531 48.8789 214.266 48.5664C215 48.2461 215.828 48.0859 216.75 48.0859C217.648 48.0859 218.445 48.2344 219.141 48.5312C219.836 48.8281 220.418 49.25 220.887 49.7969C221.363 50.3438 221.723 51 221.965 51.7656C222.207 52.5234 222.328 53.3672 222.328 54.2969V55.7031H212.25V53.4531H219.012V53.1953C219.012 52.7266 218.926 52.3086 218.754 51.9414C218.59 51.5664 218.34 51.2695 218.004 51.0508C217.668 50.832 217.238 50.7227 216.715 50.7227C216.27 50.7227 215.887 50.8203 215.566 51.0156C215.246 51.2109 214.984 51.4844 214.781 51.8359C214.586 52.1875 214.438 52.6016 214.336 53.0781C214.242 53.5469 214.195 54.0625 214.195 54.625V55.0938C214.195 55.6016 214.266 56.0703 214.406 56.5C214.555 56.9297 214.762 57.3008 215.027 57.6133C215.301 57.9258 215.629 58.168 216.012 58.3398C216.402 58.5117 216.844 58.5977 217.336 58.5977C217.945 58.5977 218.512 58.4805 219.035 58.2461C219.566 58.0039 220.023 57.6406 220.406 57.1562L222.047 58.9375C221.781 59.3203 221.418 59.6875 220.957 60.0391C220.504 60.3906 219.957 60.6797 219.316 60.9062C218.676 61.125 217.945 61.2344 217.125 61.2344Z" fill="#888888"/>
<path d="M118.594 98.4219V104.75H101.086V98.4219H118.594ZM103.828 84.875V119H95.6016V84.875H103.828ZM124.125 84.875V119H115.922V84.875H124.125ZM127.992 106.578V106.086C127.992 104.227 128.258 102.516 128.789 100.953C129.32 99.375 130.102 98.0078 131.133 96.8516C132.164 95.6953 133.438 94.7969 134.953 94.1562C136.469 93.5 138.219 93.1719 140.203 93.1719C142.203 93.1719 143.961 93.5 145.477 94.1562C147.008 94.7969 148.289 95.6953 149.32 96.8516C150.352 98.0078 151.133 99.375 151.664 100.953C152.195 102.516 152.461 104.227 152.461 106.086V106.578C152.461 108.422 152.195 110.133 151.664 111.711C151.133 113.273 150.352 114.641 149.32 115.812C148.289 116.969 147.016 117.867 145.5 118.508C143.984 119.148 142.234 119.469 140.25 119.469C138.266 119.469 136.508 119.148 134.977 118.508C133.445 117.867 132.164 116.969 131.133 115.812C130.102 114.641 129.32 113.273 128.789 111.711C128.258 110.133 127.992 108.422 127.992 106.578ZM135.891 106.086V106.578C135.891 107.531 135.961 108.422 136.102 109.25C136.242 110.078 136.477 110.805 136.805 111.43C137.133 112.039 137.578 112.516 138.141 112.859C138.703 113.203 139.406 113.375 140.25 113.375C141.078 113.375 141.766 113.203 142.312 112.859C142.875 112.516 143.32 112.039 143.648 111.43C143.977 110.805 144.211 110.078 144.352 109.25C144.492 108.422 144.562 107.531 144.562 106.578V106.086C144.562 105.164 144.492 104.297 144.352 103.484C144.211 102.656 143.977 101.93 143.648 101.305C143.32 100.664 142.875 100.164 142.312 99.8047C141.75 99.4453 141.047 99.2656 140.203 99.2656C139.375 99.2656 138.68 99.4453 138.117 99.8047C137.57 100.164 137.133 100.664 136.805 101.305C136.477 101.93 136.242 102.656 136.102 103.484C135.961 104.297 135.891 105.164 135.891 106.086ZM163.688 111.453L168.375 93.6406H173.32L171.562 102.57L166.922 119H162.961L163.688 111.453ZM161.836 93.6406L164.742 111.312L165.07 119H160.266L154.266 93.6406H161.836ZM177.492 110.938L180.422 93.6406H187.992L182.039 119H177.234L177.492 110.938ZM173.883 93.6406L178.617 111.406L179.344 119H175.336L170.789 102.617L169.102 93.6406H173.883ZM218.297 84.875V119H210.07V84.875H218.297ZM228.562 84.875V91.2266H200.039V84.875H228.562ZM225.773 106.578V106.086C225.773 104.227 226.039 102.516 226.57 100.953C227.102 99.375 227.883 98.0078 228.914 96.8516C229.945 95.6953 231.219 94.7969 232.734 94.1562C234.25 93.5 236 93.1719 237.984 93.1719C239.984 93.1719 241.742 93.5 243.258 94.1562C244.789 94.7969 246.07 95.6953 247.102 96.8516C248.133 98.0078 248.914 99.375 249.445 100.953C249.977 102.516 250.242 104.227 250.242 106.086V106.578C250.242 108.422 249.977 110.133 249.445 111.711C248.914 113.273 248.133 114.641 247.102 115.812C246.07 116.969 244.797 117.867 243.281 118.508C241.766 119.148 240.016 119.469 238.031 119.469C236.047 119.469 234.289 119.148 232.758 118.508C231.227 117.867 229.945 116.969 228.914 115.812C227.883 114.641 227.102 113.273 226.57 111.711C226.039 110.133 225.773 108.422 225.773 106.578ZM233.672 106.086V106.578C233.672 107.531 233.742 108.422 233.883 109.25C234.023 110.078 234.258 110.805 234.586 111.43C234.914 112.039 235.359 112.516 235.922 112.859C236.484 113.203 237.188 113.375 238.031 113.375C238.859 113.375 239.547 113.203 240.094 112.859C240.656 112.516 241.102 112.039 241.43 111.43C241.758 110.805 241.992 110.078 242.133 109.25C242.273 108.422 242.344 107.531 242.344 106.578V106.086C242.344 105.164 242.273 104.297 242.133 103.484C241.992 102.656 241.758 101.93 241.43 101.305C241.102 100.664 240.656 100.164 240.094 99.8047C239.531 99.4453 238.828 99.2656 237.984 99.2656C237.156 99.2656 236.461 99.4453 235.898 99.8047C235.352 100.164 234.914 100.664 234.586 101.305C234.258 101.93 234.023 102.656 233.883 103.484C233.742 104.297 233.672 105.164 233.672 106.086ZM266.086 84.875H279.516C282.141 84.875 284.422 85.2656 286.359 86.0469C288.297 86.8281 289.789 87.9844 290.836 89.5156C291.898 91.0469 292.43 92.9375 292.43 95.1875C292.43 97.1406 292.125 98.7734 291.516 100.086C290.906 101.398 290.055 102.484 288.961 103.344C287.883 104.188 286.625 104.883 285.188 105.43L282.492 106.953H271.219L271.172 100.602H279.516C280.562 100.602 281.43 100.414 282.117 100.039C282.805 99.6641 283.32 99.1328 283.664 98.4453C284.023 97.7422 284.203 96.9062 284.203 95.9375C284.203 94.9531 284.023 94.1094 283.664 93.4062C283.305 92.7031 282.773 92.1641 282.07 91.7891C281.383 91.4141 280.531 91.2266 279.516 91.2266H274.312V119H266.086V84.875ZM284.766 119L277.219 103.906L285.938 103.859L293.578 118.648V119H284.766ZM311.836 112.836V93.6406H319.758V119H312.352L311.836 112.836ZM312.586 107.68L314.648 107.633C314.648 109.336 314.445 110.914 314.039 112.367C313.633 113.805 313.031 115.055 312.234 116.117C311.453 117.18 310.484 118.008 309.328 118.602C308.188 119.18 306.867 119.469 305.367 119.469C304.117 119.469 302.969 119.297 301.922 118.953C300.891 118.594 300 118.039 299.25 117.289C298.5 116.523 297.914 115.547 297.492 114.359C297.086 113.156 296.883 111.719 296.883 110.047V93.6406H304.781V110.094C304.781 110.656 304.852 111.141 304.992 111.547C305.133 111.953 305.336 112.297 305.602 112.578C305.867 112.844 306.195 113.047 306.586 113.188C306.992 113.312 307.453 113.375 307.969 113.375C309.156 113.375 310.086 113.125 310.758 112.625C311.43 112.125 311.898 111.445 312.164 110.586C312.445 109.727 312.586 108.758 312.586 107.68ZM331.875 99.0547V119H323.977V93.6406H331.383L331.875 99.0547ZM330.938 105.453L329.086 105.5C329.086 103.562 329.32 101.836 329.789 100.32C330.258 98.7891 330.922 97.4922 331.781 96.4297C332.641 95.3672 333.664 94.5625 334.852 94.0156C336.055 93.4531 337.391 93.1719 338.859 93.1719C340.031 93.1719 341.102 93.3438 342.07 93.6875C343.055 94.0312 343.898 94.5859 344.602 95.3516C345.32 96.1172 345.867 97.1328 346.242 98.3984C346.633 99.6484 346.828 101.195 346.828 103.039V119H338.883V103.016C338.883 102 338.742 101.227 338.461 100.695C338.18 100.148 337.773 99.7734 337.242 99.5703C336.711 99.3672 336.062 99.2656 335.297 99.2656C334.484 99.2656 333.797 99.4219 333.234 99.7344C332.672 100.047 332.219 100.484 331.875 101.047C331.547 101.594 331.305 102.242 331.148 102.992C331.008 103.742 330.938 104.562 330.938 105.453ZM363.773 108.195H357.047C357.047 106.82 357.141 105.609 357.328 104.562C357.531 103.5 357.875 102.547 358.359 101.703C358.844 100.859 359.5 100.078 360.328 99.3594C361.062 98.75 361.695 98.1641 362.227 97.6016C362.758 97.0391 363.164 96.4688 363.445 95.8906C363.727 95.3125 363.867 94.6953 363.867 94.0391C363.867 93.2266 363.75 92.5625 363.516 92.0469C363.297 91.5312 362.961 91.1484 362.508 90.8984C362.07 90.6328 361.516 90.5 360.844 90.5C360.297 90.5 359.781 90.6328 359.297 90.8984C358.828 91.1641 358.445 91.5781 358.148 92.1406C357.852 92.6875 357.688 93.4141 357.656 94.3203H349.711C349.758 91.9922 350.273 90.1016 351.258 88.6484C352.258 87.1797 353.586 86.1094 355.242 85.4375C356.914 84.75 358.781 84.4062 360.844 84.4062C363.125 84.4062 365.086 84.7578 366.727 85.4609C368.367 86.1641 369.625 87.2109 370.5 88.6016C371.375 89.9766 371.812 91.6719 371.812 93.6875C371.812 95.0312 371.555 96.2031 371.039 97.2031C370.539 98.1875 369.859 99.1094 369 99.9688C368.156 100.812 367.211 101.719 366.164 102.688C365.258 103.484 364.641 104.297 364.312 105.125C363.984 105.938 363.805 106.961 363.773 108.195ZM356.086 115.32C356.086 114.195 356.492 113.258 357.305 112.508C358.117 111.742 359.172 111.359 360.469 111.359C361.766 111.359 362.82 111.742 363.633 112.508C364.445 113.258 364.852 114.195 364.852 115.32C364.852 116.445 364.445 117.391 363.633 118.156C362.82 118.906 361.766 119.281 360.469 119.281C359.172 119.281 358.117 118.906 357.305 118.156C356.492 117.391 356.086 116.445 356.086 115.32Z" fill="black"/>
<path d="M1134 0H1348C1356.28 0 1363 6.71573 1363 15V148C1363 156.284 1356.28 163 1348 163H1134V0Z" fill="#1439B5"/>
<path d="M1260.62 78.8078C1263.81 78.8078 1266.93 79.7552 1269.59 81.5302C1272.25 83.3052 1274.32 85.8281 1275.54 88.7798C1276.76 91.7315 1277.08 94.9795 1276.46 98.1131C1275.84 101.247 1274.3 104.125 1272.04 106.384C1269.78 108.643 1266.9 110.182 1263.77 110.805C1260.63 111.428 1257.39 111.108 1254.43 109.886C1251.48 108.663 1248.96 106.593 1247.18 103.936C1245.41 101.28 1244.46 98.1565 1244.46 94.9616C1244.46 90.6774 1246.16 86.5686 1249.19 83.5392C1252.22 80.5097 1256.33 78.8078 1260.62 78.8078ZM1260.62 73.4232C1256.36 73.4232 1252.19 74.6864 1248.65 77.0531C1245.11 79.4198 1242.35 82.7836 1240.72 86.7192C1239.09 90.6549 1238.66 94.9855 1239.49 99.1636C1240.32 103.342 1242.37 107.179 1245.39 110.192C1248.4 113.204 1252.24 115.255 1256.41 116.086C1260.59 116.917 1264.92 116.491 1268.86 114.861C1272.79 113.23 1276.16 110.47 1278.52 106.928C1280.89 103.386 1282.15 99.2215 1282.15 94.9616C1282.15 89.2493 1279.88 83.7709 1275.85 79.7317C1271.81 75.6924 1266.33 73.4232 1260.62 73.4232Z" fill="white"/>
<path d="M1274.08 46.4999H1220.23C1218.8 46.4999 1217.43 47.0672 1216.42 48.0771C1215.41 49.0869 1214.85 50.4565 1214.85 51.8845V105.731C1214.85 107.159 1215.41 108.528 1216.42 109.538C1217.43 110.548 1218.8 111.115 1220.23 111.115H1231V105.731H1220.23V68.0383H1279.46V51.8845C1279.46 50.4565 1278.89 49.0869 1277.88 48.0771C1276.87 47.0672 1275.5 46.4999 1274.08 46.4999ZM1220.23 62.6537V51.8845H1274.08V62.6537H1220.23Z" fill="white"/>
<path d="M1255.23 86.8848V103.039L1268.69 94.9617L1255.23 86.8848Z" fill="white"/>
</svg>
